<?xml version="1.0" encoding="utf-8"?>
<!-- Generator: Adobe Illustrator 28.0.0, SVG Export Plug-In . SVG Version: 6.00 Build 0)  -->
<svg version="1.1" id="Layer_1" xmlns="http://www.w3.org/2000/svg" xmlns:xlink="http://www.w3.org/1999/xlink" x="0px" y="0px"
	 viewBox="0 0 451 141" style="enable-background:new 0 0 451 141;" xml:space="preserve">
<style type="text/css">
	.st0{fill:#1B6734;}
	.st1{fill-rule:evenodd;clip-rule:evenodd;fill:#FF8300;}
	.st2{fill:#FF8300;}
</style>
<g>
	<path class="st0" d="M300.53,103.01c0,3.95-3.16,7.25-7.03,7.25l-0.07,0v8.58c8.76,0,15.93-7.14,15.93-15.97
		c0-8.54-7.03-15.72-15.36-15.72c-0.2,0-0.39,0-0.57,0.01v8.46C297.37,95.62,300.53,98.92,300.53,103.01 M341.73,87.51h-8.83v15.5
		c0,5.81-1.29,7.89-4.95,7.89c-3.73,0-5.1-2.15-5.1-7.82V87.51h-8.76v15.72c0,4.67,0.5,6.96,2.08,9.55
		c2.37,3.95,6.89,6.35,11.7,6.35c4.81,0,9.04-2.26,11.56-6.21c1.94-3.01,2.3-4.45,2.3-9.83V87.51z M375.31,118.4v-16.32
		c0-4.31-0.69-6.93-2.58-9.62c-2.56-3.63-6.75-5.88-11.2-5.88c-4.31,0-8.54,2.15-11.12,5.67c-2.01,2.8-2.66,5.31-2.66,10.19v15.9
		h8.76v-16.33c0-5.02,1.51-7.18,5.1-7.18c3.45,0,4.95,2.15,4.95,7.11v16.46H375.31z M399.82,118.34v-8.36h-2.3
		c-5.45,0-8.54-2.51-8.54-7.03c0-4.45,3.16-6.96,8.61-7.03h2.23v-8.4h-2.58c-4.88,0-6.67,0.43-9.69,2.15
		c-4.74,2.8-7.54,7.68-7.54,13.28c0,5.6,2.87,10.62,7.75,13.35c2.94,1.72,4.38,2.05,9.55,2.05H399.82z M414.32,79.11
		c0-2.66-2.23-4.81-4.95-4.81c-2.73,0-4.88,2.23-4.88,4.95c0,2.73,2.22,4.95,4.88,4.95C412.1,84.21,414.32,81.91,414.32,79.11
		 M414.11,87.51h-8.76v30.83h8.76V87.51z M437.4,118.23v-8.18c-5.31,0-6.39-1.15-6.39-6.78v-1.22v-6.14h6.39v-8.4h-6.39V76.96h-8.83
		v10.55h-5.27v8.47h5.27v5.27v2.44c0.07,5.7,0.72,7.72,3.3,10.51c2.51,2.87,5.67,4.13,10.19,4.13
		C436.18,118.34,436.75,118.34,437.4,118.23 M293.42,110.26c-3.91-0.04-7.11-3.33-7.11-7.32c0-4.02,3.23-7.32,7.11-7.32v-8.46
		c-2.45,0.06-3.97,0.54-7.11,2.07V70.5h-8.76v30.14c0,5.38,0.5,7.82,2.51,10.91c2.8,4.52,7.89,7.29,13.35,7.29V110.26z"/>
	<path class="st0" d="M65.03,118.83v-8.31l0.07,0c3.9,0,7.08-3.4,7.08-7.51v-0.43c-0.29-3.8-3.43-6.82-7.15-6.86v-8.59
		c5.1,0.02,9.84,2.4,12.85,6.43c2.38,3.25,3.25,6.07,3.25,11.34v13.61h-8.81v-2.56C69.56,117.86,67.48,118.68,65.03,118.83
		 M115.15,87.48h-10.33L99.47,96c-2.09,3.32-2.82,5.13-2.82,7c0,1.3,0.36,2.24,1.37,3.83l1.44,2.24l6.28,9.43h10.9l-11.48-15.92
		L115.15,87.48z M96.37,70.37h-8.81v48.14h8.81V70.37z M163.75,118.58v-16.29c0-4.98-0.54-7.13-2.46-9.97
		c-2.42-3.58-6.35-5.63-10.69-5.63c-3.47,0-5.92,1.01-9.24,3.9c-2.6-2.74-5.56-3.97-9.17-3.97c-4.33,0-8.3,2.09-10.54,5.63
		c-1.81,2.67-2.17,4.55-2.17,9.89v16.36h8.81v-17.66c0-4.12,1.37-5.99,4.41-5.99c3.11,0,4.41,1.73,4.41,5.92v17.73h8.81v-17.73
		c0-4.04,1.52-6.07,4.55-6.07c2.96,0,4.48,1.95,4.48,5.99v17.88H163.75z M179.24,79.03c0-2.67-2.24-4.84-4.98-4.84
		c-2.74,0-4.91,2.24-4.91,4.98c0,2.74,2.24,4.98,4.91,4.98C177,84.16,179.24,81.85,179.24,79.03 M179.02,87.48h-8.81v31.02h8.81
		V87.48z M36.72,103.08c0,3.97-3.18,7.29-7.08,7.29h-0.07v8.63c8.81,0,16.03-7.19,16.03-16.07c0-8.59-7.08-15.81-15.45-15.81
		c-0.2,0-0.39,0-0.58,0.01v8.52C33.54,95.64,36.72,98.96,36.72,103.08 M65.03,87.12v8.59h-0.07c-3.9,0-7.08,3.32-7.08,7.29
		c0,4.09,3.21,7.47,7.15,7.51v8.31c-0.31,0.02-0.62,0.03-0.94,0.03c-8.02,0-15.09-7.4-15.09-15.78c0-8.81,7.22-15.96,15.96-15.96
		H65.03z M29.57,110.38c-3.94-0.04-7.15-3.35-7.15-7.37c0-4.04,3.25-7.37,7.15-7.37v-8.52c-2.46,0.06-3.99,0.55-7.15,2.09V70.37
		H13.6v30.33c0,5.42,0.51,7.87,2.53,10.98c2.82,4.55,7.94,7.33,13.43,7.33V110.38z"/>
	<path class="st1" d="M230.23,70.34c20.71,0,37.6,6.7,37.6,14.91c0,2.9-2.11,5.61-5.75,7.91c1.04-1.24,1.61-2.57,1.61-3.94
		c0-7.09-15.02-12.87-33.44-12.87c-0.47-2.04-0.85-3.82-2.07-5.99C228.86,70.35,229.54,70.34,230.23,70.34 M213.74,78.02
		c-10.12,2.22-16.98,6.41-16.98,11.19c0,1.37,0.57,2.7,1.61,3.94c-3.64-2.29-5.75-5-5.75-7.9c0-6.13,9.41-11.42,22.8-13.7
		C214.86,74.13,214.38,76.47,213.74,78.02"/>
	<path class="st1" d="M309.94,26.65c1.39-0.76,0.05-4.08-1.4-3.53l-99.7,41.71c-1.42,0.88-0.68,2.66,0.99,2.34L309.94,26.65z"/>
	<path class="st2" d="M198.21,89.03c0.01-0.03,2.85-10.06,12.12-10.4c5.6-0.21,6.98,1.13,8.2,2.3c0.61,0.59,1.16,1.12,2.53,1.22
		c1.68,0.13,2.21-0.28,2.87-0.81c0.97-0.77,2.17-1.71,5.73-2.07c3.64-0.37,5.25,0.7,6.91,1.8c1.27,0.85,2.58,1.72,5.16,1.72
		c2.64,0,4.36-0.98,6.16-2c1.88-1.07,3.83-2.17,6.89-2.43c1.3,0.47,2.51,0.97,3.6,1.51c-0.69-0.06-1.43-0.1-2.2-0.1
		c-3.43,0-5.47,1.16-7.43,2.27c-1.99,1.13-3.91,2.22-7.01,2.22c-3.11,0-4.63-1.01-6.12-2c-1.4-0.93-2.76-1.84-5.77-1.53
		c-3.06,0.31-4.04,1.08-4.84,1.71c-0.96,0.76-1.71,1.35-4.07,1.18c-1.99-0.15-2.75-0.88-3.58-1.69c-0.98-0.94-2.09-2.02-6.94-1.84
		c-8.06,0.3-10.61,9.27-10.61,9.29L198.21,89.03z"/>
	<path class="st2" d="M195.62,90.29c1.53-1.11,3.46-1.94,5.82-2.04c4.64-0.2,6.21,1.03,7.63,2.16c0.82,0.65,1.58,1.25,3.09,1.37
		c1.72,0.13,2.25-0.29,2.92-0.82c0.96-0.76,2.15-1.7,5.69-2.05c3.61-0.37,5.21,0.7,6.85,1.79c1.28,0.85,2.6,1.73,5.2,1.73
		c2.66,0,4.4-0.98,6.2-2.01c2.14-1.21,4.37-2.48,8.25-2.48c3.67,0,6.54,0.68,8.78,2.08c1.71,1.07,3.04,2.55,4.07,4.46
		c-0.41,0.25-0.85,0.49-1.3,0.72c-0.92-1.73-2.09-3.05-3.6-4c-1.98-1.24-4.58-1.84-7.95-1.84c-3.46,0-5.51,1.16-7.47,2.28
		c-1.98,1.12-3.89,2.21-6.97,2.21c-3.08,0-4.59-1.01-6.07-1.99c-1.41-0.94-2.78-1.85-5.82-1.54c-3.08,0.31-4.07,1.09-4.87,1.73
		c-0.94,0.75-1.69,1.34-4.01,1.16c-1.98-0.15-2.92-0.9-3.94-1.7c-1.2-0.95-2.53-2-6.59-1.82c-2.05,0.09-3.72,0.82-5.06,1.8
		C196.12,91.09,195.85,90.69,195.62,90.29"/>
	<path class="st2" d="M201.84,88.76c0.01-0.02,1.97-6.9,8.97-7.58c4.11-0.4,5.4,0.83,6.64,2.02c0.7,0.67,1.37,1.32,2.81,1.43
		c1.74,0.13,2.51-0.32,3.45-0.89c1.21-0.72,2.66-1.59,6.04-1.93c3.57-0.36,5.15,0.69,6.77,1.77c1.25,0.83,2.52,1.68,5.04,1.68
		c2.56,0,4.24-1.02,5.99-2.08c2.11-1.28,4.31-2.62,8.14-2.62c1.81,0,3.35,0.15,4.67,0.43c1.75,1.07,3.09,2.24,3.95,3.48
		c-0.42-0.38-0.88-0.72-1.41-1.01c-1.65-0.91-3.93-1.42-7.21-1.42c-3.34,0-5.33,1.21-7.23,2.37c-1.96,1.19-3.84,2.34-6.89,2.34
		c-3.05,0-4.54-0.99-6-1.96c-1.36-0.91-2.69-1.79-5.63-1.49c-2.98,0.3-4.26,1.07-5.33,1.7c-1.21,0.72-2.19,1.3-4.48,1.13
		c-2.06-0.16-2.95-1.01-3.86-1.89c-0.97-0.93-1.98-1.89-5.29-1.57c-5.87,0.57-7.57,6.48-7.57,6.5L201.84,88.76z"/>
	<path class="st2" d="M197.41,92.48c1.18-0.81,2.66-1.47,4.51-1.68c3.45-0.39,4.83,0.76,6.19,1.9c0.86,0.72,1.71,1.43,3.26,1.55
		c1.76,0.13,2.54-0.33,3.49-0.9c1.2-0.72,2.65-1.58,6.01-1.92c3.54-0.36,5.11,0.68,6.72,1.76c1.25,0.83,2.53,1.68,5.07,1.68
		c2.58,0,4.27-1.03,6.02-2.09c2.1-1.28,4.29-2.61,8.1-2.61c3.59,0,6.13,0.59,8.02,1.63c1.63,0.9,2.75,2.13,3.61,3.61
		c-0.44,0.22-0.91,0.43-1.39,0.64c-0.73-1.23-1.67-2.25-2.99-2.99c-1.66-0.92-3.95-1.43-7.25-1.43c-3.36,0-5.36,1.21-7.27,2.38
		c-1.95,1.18-3.82,2.33-6.86,2.33c-3.02,0-4.51-0.99-5.96-1.95c-1.37-0.91-2.71-1.8-5.67-1.5c-2.99,0.3-4.28,1.07-5.35,1.71
		c-1.2,0.72-2.17,1.29-4.44,1.12c-2.06-0.16-3.11-1.03-4.16-1.91c-1.11-0.92-2.22-1.86-4.99-1.54c-1.39,0.16-2.55,0.62-3.49,1.21
		C198.18,93.14,197.77,92.81,197.41,92.48"/>
	<path class="st2" d="M204.06,89.31c0-0.01,1.71-4.87,7.62-5.56c3.42-0.4,4.78,0.76,6.13,1.92c0.83,0.71,1.65,1.41,3.14,1.53
		c1.69,0.13,2.43-0.32,3.35-0.88c1.18-0.72,2.61-1.59,5.92-1.93c3.5-0.36,5.05,0.69,6.64,1.77c1.21,0.82,2.45,1.67,4.9,1.67
		c2.49,0,4.13-1.02,5.84-2.08c2.06-1.28,4.21-2.62,7.98-2.62c3.54,0,5.79,0.6,7.44,1.57c0.93,0.55,1.64,1.21,2.27,1.93
		c0.07,0.34,0.11,0.68,0.11,1.03c0,0.48-0.07,0.94-0.21,1.41c-0.91-1.26-1.77-2.38-3.07-3.15c-1.39-0.83-3.35-1.33-6.54-1.33
		c-3.25,0-5.19,1.21-7.05,2.37c-1.91,1.19-3.76,2.34-6.76,2.34c-2.99,0-4.45-1-5.88-1.97c-1.33-0.9-2.62-1.78-5.48-1.49
		c-2.91,0.3-4.16,1.06-5.19,1.69c-1.19,0.73-2.15,1.31-4.4,1.13c-2.04-0.16-3.08-1.04-4.12-1.93c-1.07-0.91-2.15-1.83-4.8-1.52
		c-4.88,0.57-6.28,4.56-6.28,4.57L204.06,89.31z"/>
	<path class="st2" d="M256.69,85.09L256.69,85.09c4.12,0.17,6.99,2.92,8.37,4.33c-0.18,0.48-0.42,0.94-0.74,1.4
		c-0.05-0.06-0.11-0.11-0.17-0.17c-1.16-1.19-3.8-3.89-7.47-4.07V85.09L256.69,85.09L256.69,85.09z M248.87,88.23
		c0.01-0.01,3.17-3.17,7.47-3.15c0.13,0,0.25,0,0.35,0.01h0h0h0v1.49l-0.06-0.01h0c-0.11,0-0.21-0.01-0.29-0.01
		c-3.65-0.02-6.37,2.7-6.38,2.71L248.87,88.23z"/>
	<path class="st2" d="M251,88.11c0.01,0,5.41-1.1,7.3-0.33c2.77,1.13,3.62,2.48,4.33,3.62c0.18,0.29,0.35,0.56,0.54,0.79
		c-0.34,0.34-0.73,0.67-1.14,0.99c-0.26-0.31-0.48-0.65-0.7-1.02c-0.59-0.95-1.3-2.09-3.61-3.03c-1.45-0.59-6.39,0.41-6.4,0.42
		L251,88.11z"/>
	<path class="st2" d="M199.76,94.23c0.88-0.42,1.88-0.73,3.03-0.87c3.41-0.4,4.76,0.76,6.11,1.91c0.83,0.71,1.66,1.42,3.16,1.53
		c1.7,0.13,2.44-0.32,3.37-0.89c1.18-0.72,2.61-1.59,5.91-1.93c3.5-0.36,5.04,0.69,6.62,1.77c1.21,0.83,2.46,1.68,4.92,1.68
		c2.5,0,4.14-1.02,5.85-2.08c2.06-1.28,4.21-2.62,7.97-2.62c3.54,0,5.78,0.59,7.42,1.57c0.95,0.57,1.68,1.24,2.32,2
		c-0.49,0.2-1,0.4-1.52,0.59c-0.49-0.53-1.03-1-1.67-1.38c-1.39-0.83-3.36-1.33-6.55-1.33c-3.26,0-5.2,1.21-7.07,2.37
		c-1.91,1.19-3.75,2.34-6.75,2.34c-2.99,0-4.45-0.99-5.87-1.96c-1.33-0.91-2.63-1.79-5.5-1.49c-2.91,0.3-4.16,1.06-5.2,1.7
		c-1.19,0.72-2.14,1.31-4.39,1.13c-2.03-0.16-3.07-1.04-4.11-1.93c-1.07-0.91-2.15-1.84-4.82-1.53c-0.58,0.07-1.12,0.19-1.62,0.36
		C200.8,94.86,200.26,94.55,199.76,94.23"/>
	<path class="st1" d="M229.79,21.16c15.46,14.42-0.49,15.31,3.89,31.04C223.14,36.75,240.3,37.32,229.79,21.16"/>
	<path class="st1" d="M216.59,13.96c15.45,18.58-0.49,19.72,3.89,39.99C209.94,34.05,227.11,34.79,216.59,13.96"/>
	<path class="st1" d="M201.05,21.62c15.87,26.88-1.55,26.78,1.73,54.49C193.32,48.66,211.24,51.15,201.05,21.62"/>
	<path class="st2" d="M228.42,80.28c-0.01-0.06-3.95-21.22-9.5-22.15c-1.62-0.27-2.3,0.73-2.56,2.28c-0.26,1.55-0.15,3.65-0.04,5.72
		c0.13,2.49,0.26,4.96-0.24,6.72l0,0c-0.02,0.06,0.01-0.01-0.01,0.04c-0.2,0.69-0.42,1.32-0.64,1.89c-0.23,0.58-0.47,1.1-0.72,1.57
		c-1.29,2.47-2.73,3.56-3.08,3.78l-0.85-1.37c0.27-0.17,1.39-1.03,2.5-3.15c0.22-0.42,0.44-0.9,0.65-1.42
		c0.21-0.53,0.41-1.12,0.6-1.75l0-0.01c0-0.01,0-0.01,0.01-0.02c0.42-1.48,0.3-3.83,0.17-6.19c-0.11-2.15-0.23-4.32,0.06-6.07
		c0.42-2.49,1.58-4.08,4.41-3.61c6.68,1.11,10.81,23.38,10.82,23.44L228.42,80.28z"/>
	<path class="st2" d="M225.44,79.24c-0.01-0.06-2.21-21.72-6.52-21.11c-1.58,0.22-1.63,2.04-1.3,4.37c0.12,0.88,0.3,1.8,0.48,2.75
		c0.59,3.09,1.22,6.39,0.32,8.83l0,0.01c-1.97,5.33-4.29,7.66-4.99,8.35l0,0l-0.02,0.02l-1.15-1.14l0.02-0.02h0
		c0.64-0.63,2.76-2.76,4.61-7.77l0-0.01c0.74-2.02,0.16-5.1-0.39-7.98c-0.19-0.98-0.37-1.93-0.5-2.82c-0.46-3.24-0.24-5.78,2.67-6.2
		c5.99-0.86,8.35,22.48,8.36,22.54L225.44,79.24z"/>
	<path class="st2" d="M222.88,79.8C222.88,79.8,222.88,79.8,222.88,79.8 M222.88,79.56c0,0.1,0,0.18,0,0.23v0.01l0.12,0.01l-0.12,0
		c0,0.02,0,0,0,0h0v0l0.12,0l1.5,0.1c0,0,0,0,0-0.05c0.01-0.24-0.01-0.83-0.07-1.65c-0.05-0.73-0.14-1.78-0.26-3.08
		c-0.26-2.61-0.68-5.9-1.29-8.9V79.56z M222.88,79.8C222.88,79.79,222.88,79.8,222.88,79.8L222.88,79.8z M222.88,66.23
		c-0.88-4.31-2.14-8.03-3.88-8.31l-0.13-0.01c-1.54,0-2.11,1.03-2.11,2.65c0,1.67,0.68,4.07,1.36,6.44c0.66,2.31,1.3,4.58,1.23,5.86
		c-0.2,3.52-3.13,7.19-3.14,7.2l1.27,1c0.01-0.01,3.25-4.08,3.49-8.11c0.09-1.54-0.6-3.95-1.29-6.39c-0.64-2.26-1.3-4.55-1.29-6
		c0-0.59,0.12-0.98,0.44-1.02c1.88,0.52,3.18,9.93,3.75,15.75c0.11,1.1,0.19,2.16,0.25,3.03c0.04,0.56,0.06,0.99,0.07,1.25V66.23z"
		/>
	<path class="st1" d="M314.61,39.03c1.49-0.54,0.68-4.02-0.83-3.71l-104.95,25.8c-1.54,0.65-1.08,2.53,0.62,2.47L314.61,39.03z"/>
	<path class="st2" d="M214.93,99.38c1.29-1.39,3.26-2.83,6.1-3.16c2.84-0.33,4.33,0.63,5.94,1.67c1.55,1,3.24,2.09,6.75,1.78
		c3.54-0.31,5.17-1.42,6.74-2.48c1.59-1.08,3.13-2.12,6.24-2.44c3.58-0.37,4.81,0.98,6.06,2.36c0.12,0.13,0.24,0.26,0.36,0.39
		c-0.54,0.17-1.09,0.33-1.65,0.49c-0.96-1.06-1.91-2.07-4.59-1.8c-2.66,0.28-4.03,1.2-5.45,2.16c-1.06,0.72-2.15,1.45-3.73,2
		c-2.44,0.2-4.96,0.3-7.55,0.3c-0.38,0-0.75,0-1.13-0.01c-1.2-0.41-2.12-1.01-2.99-1.57c-1.34-0.86-2.57-1.66-4.78-1.41
		c-1.93,0.22-3.38,1.07-4.44,2.02C216.17,99.59,215.54,99.49,214.93,99.38"/>
	<path class="st2" d="M217.84,99.83c0.91-0.46,1.97-0.8,3.19-0.95c2.84-0.33,4.33,0.63,5.94,1.67c0.02,0.01,0.04,0.03,0.07,0.04
		c-1.31-0.04-2.6-0.11-3.87-0.21c-0.39-0.08-0.82-0.12-1.29-0.11C220.5,100.17,219.15,100.02,217.84,99.83 M240.05,100.13
		c0.14-0.09,0.27-0.18,0.4-0.27c1.59-1.08,3.13-2.12,6.24-2.44c2.03-0.21,3.3,0.13,4.25,0.72c-0.92,0.25-1.86,0.48-2.84,0.69
		c-0.36-0.02-0.77-0.01-1.22,0.04c-1.27,0.13-2.24,0.41-3.07,0.77C242.59,99.82,241.34,99.99,240.05,100.13"/>
	<path class="st2" d="M213.21,79.59c0.01-0.01,2.35-3.21,8.07-3.21c2.87,0,4.06,1,5.2,1.95c0.95,0.8,1.85,1.55,4.21,1.26
		c2.32-0.28,3.64-0.97,4.83-1.58c1.54-0.8,2.88-1.49,5.56-1.31c4.54,0.32,5.84,1.51,8.09,3.58v0c0.04,0.04,0.11,0.1,0.52,0.48
		l-1.15,1.04c-0.05-0.04-0.23-0.21-0.53-0.48h0c-1.98-1.82-3.12-2.87-7.06-3.14c-2.19-0.15-3.32,0.44-4.62,1.11
		c-1.32,0.68-2.79,1.45-5.42,1.77c-3.11,0.38-4.28-0.61-5.52-1.64c-0.91-0.76-1.87-1.56-4.1-1.56c-4.85,0-6.72,2.55-6.72,2.56
		L213.21,79.59z"/>
	<path class="st2" d="M205.95,89.33c0-0.01,1.37-3.15,6.63-3.15c2.45,0,3.66,0.78,4.86,1.54c1.12,0.72,2.22,1.42,4.74,1.11
		c2.32-0.28,3.56-0.88,4.65-1.41c1.45-0.7,2.68-1.29,5.36-1.11c4.54,0.32,5.84,1.51,8.09,3.58v0c0.04,0.04,0.11,0.1,0.52,0.48
		l-1.15,1.04c-0.05-0.04-0.23-0.21-0.53-0.49l0,0c-1.98-1.82-3.12-2.87-7.06-3.15c-2.22-0.16-3.25,0.34-4.47,0.93
		c-1.22,0.59-2.6,1.26-5.2,1.57c-3.15,0.38-4.5-0.49-5.89-1.37c-0.98-0.63-1.98-1.27-3.91-1.27c-4.16,0-5.12,2.23-5.13,2.24
		L205.95,89.33z"/>
	<path class="st2" d="M216.65,81.11c0,0-0.64-2.08,4.21-2.48c1.19-0.1,2.19,0.21,3,0.68h0c0.78,0.45,1.37,1.03,1.78,1.51l-1.28,0.91
		c-0.33-0.39-0.79-0.84-1.36-1.17h0c-0.54-0.31-1.21-0.52-1.99-0.46c-2.9,0.24-2.79,0.62-2.79,0.62L216.65,81.11z"/>
	<path class="st2" d="M207.35,90.89c0-0.01,0-2.28,4.62-2.66c1.19-0.1,2.19,0.21,3,0.68c0.77,0.45,1.36,1.03,1.78,1.51l-1.28,0.9
		c-0.33-0.38-0.79-0.84-1.37-1.17c-0.54-0.31-1.21-0.52-1.99-0.45c-3.13,0.26-3.13,1.19-3.13,1.19H207.35z"/>
	<path class="st2" d="M235.84,81.1c0,0,0.83-1.83,6.09-1.83c1.35,0,2.44,0.34,3.3,0.77c0.85,0.43,1.46,0.96,1.84,1.31l-0.85,1.13
		c-0.31-0.29-0.81-0.72-1.53-1.08c-0.71-0.36-1.63-0.65-2.75-0.65c-4.46,0-4.92,1.04-4.92,1.05L235.84,81.1z"/>
	<path class="st2" d="M225.05,78.34c0,0,0.83-1.7,6.08-1.7c1.34,0,2.44,0.32,3.29,0.72c0.85,0.4,1.47,0.89,1.84,1.22l-0.85,1.05
		c-0.31-0.27-0.82-0.67-1.53-1.01c-0.71-0.34-1.63-0.6-2.76-0.6c-4.46,0-4.92,0.97-4.92,0.97L225.05,78.34z"/>
	<path class="st2" d="M226.96,90.7c0,0,0.83-1.83,6.09-1.83c1.35,0,2.44,0.34,3.3,0.78c0.85,0.43,1.46,0.95,1.84,1.31l-0.85,1.13
		c-0.31-0.29-0.82-0.72-1.53-1.09c-0.71-0.36-1.63-0.65-2.75-0.65c-4.46,0-4.92,1.05-4.92,1.05L226.96,90.7z"/>
	<path class="st1" d="M253.17,116.16c0,0.08,0.01,0.15,0.01,0.23c0,5.87-10.31,10.66-22.94,10.66c-12.64,0-22.94-4.79-22.94-10.66
		c0-0.08,0-0.15,0.01-0.23c6.39,4.42,14.34,7.05,22.94,7.05C238.83,123.21,246.77,120.58,253.17,116.16"/>
	<path class="st1" d="M267.16,93.49c-3.15,16.05-18.53,28.3-36.92,28.3c-18.38,0-33.75-12.23-36.92-28.27
		c6.27,6.18,20.46,10.51,36.9,10.51C246.7,104.04,260.91,99.69,267.16,93.49"/>
</g>
</svg>
